<?xml version="1.0" encoding="utf-8"?><svg viewBox="0 0 32 31" xmlns="http://www.w3.org/2000/svg" xmlns:xlink="http://www.w3.org/1999/xlink"><style>:root>svg{display:none}:root>svg:target{display:block}</style><svg fill="none" viewBox="0 0 18 31" id="icon-ok" xmlns="http://www.w3.org/2000/svg"><path d="M9.223 11.642c.65 0 1.285-.2 1.825-.572.54-.374.962-.905 1.21-1.525.249-.621.314-1.305.187-1.964a3.436 3.436 0 00-.899-1.74 3.253 3.253 0 00-1.682-.93 3.184 3.184 0 00-1.898.194c-.6.257-1.114.692-1.475 1.251a3.482 3.482 0 00-.553 1.888c0 .901.346 1.766.962 2.403a3.23 3.23 0 002.323.995z" stroke="#F27400" stroke-width="1.5" stroke-linecap="round" stroke-linejoin="round"/><path d="M9.226 15.47a6.83 6.83 0 003.887-1.218 7.188 7.188 0 002.578-3.246 7.465 7.465 0 00.4-4.18 7.315 7.315 0 00-1.914-3.706 6.926 6.926 0 00-3.582-1.98 6.78 6.78 0 00-4.042.41 7.052 7.052 0 00-3.14 2.665 7.413 7.413 0 00-1.179 4.02 7.372 7.372 0 002.05 5.112 6.888 6.888 0 004.942 2.123v0zm0-10.643c.65 0 1.285.2 1.826.573.54.374.961.904 1.21 1.525.248.621.313 1.304.187 1.964a3.436 3.436 0 01-.9 1.74 3.253 3.253 0 01-1.682.93 3.184 3.184 0 01-1.898-.194 3.312 3.312 0 01-1.474-1.251 3.482 3.482 0 01-.554-1.888c0-.902.346-1.766.962-2.403a3.231 3.231 0 012.323-.996zM16.916 16.98a1.89 1.89 0 00-.487-.551 1.786 1.786 0 00-2.053-.094C14.35 16.35 11.663 18 9.097 18c-2.565 0-5.236-1.637-5.283-1.665a1.795 1.795 0 00-1.377-.182 1.856 1.856 0 00-1.11.86 1.968 1.968 0 00-.22 1.417c.107.484.392.906.795 1.176a16.79 16.79 0 004.746 1.925l-4.43 4.699c-.341.363-.53.853-.522 1.36.007.507.208.99.56 1.344.352.354.825.548 1.315.541a1.82 1.82 0 001.3-.58l4.23-4.497 4.342 4.513c.171.178.374.32.599.416a1.795 1.795 0 001.415.004c.224-.095.429-.235.6-.412.173-.177.31-.388.403-.62a1.969 1.969 0 00-.395-2.085l-4.498-4.686a16.8 16.8 0 004.722-1.922c.208-.13.39-.3.533-.503.144-.202.249-.431.307-.675a1.974 1.974 0 00-.212-1.448v0z" stroke="#F27400" stroke-width="1.5" stroke-linecap="round" stroke-linejoin="round"/></svg><svg fill="none" viewBox="0 0 28 28" id="icon-ru" xmlns="http://www.w3.org/2000/svg"><path d="M14.083 27.215c7.167 0 12.977-5.81 12.977-12.977 0-7.168-5.81-12.978-12.977-12.978-7.167 0-12.978 5.81-12.978 12.978 0 7.167 5.81 12.977 12.978 12.977z" stroke="#5FA900" stroke-width="1.5" stroke-linecap="round" stroke-linejoin="round"/><path d="M4.875 19.14L6.659 8.194h4.05c1.496 0 3.63.45 3.373 3.376-.257 2.925-2.84 3.086-2.84 3.086l2.84 4.486h-3.428l-2.22-4.089-.627 4.089H4.875z" stroke="#5FA900" stroke-width="1.5" stroke-linecap="round" stroke-linejoin="round"/><path d="M8.684 13.087l.484-2.701h.748c.721 0 1.396.531 1.253 1.352a1.617 1.617 0 01-1.46 1.349H8.684zM15.677 11.738s-.531 3.11-.747 4.509c-.216 1.398.698 2.99 2.435 2.99h1.709c1.279 0 3.11-.651 3.472-2.894.362-2.243.724-4.605.724-4.605h-2.582s-.522 3.332-.698 4.17c-.23 1.095-.455 1.279-1.547 1.279-.555 0-.982-.605-.876-1.247.175-.931.674-4.202.674-4.202h-2.564z" stroke="#5FA900" stroke-width="1.5" stroke-linecap="round" stroke-linejoin="round"/></svg><svg fill="none" viewBox="0 0 32 22" id="icon-vk" xmlns="http://www.w3.org/2000/svg"><path d="M6.858 1.975c.697 0-.308 1.186.961 5.243.506 1.614 1.283 3.44 2.68 4.656 1.863 1.611 2.117.757 2.117-.744 0-1.5 0-5.838-.425-6.974-.425-1.136-1.206-1.186-.787-2.1.271-.587 2.375-.496 4.194-.496 1.82 0 2.79-.204 2.79 1.256v7.015c0 1.005.697 1.785 2.325-.201 1.628-1.987 3.18-5.193 3.565-6.084.385-.89.7-2.01 2.248-2.01h2.985c1.132 0 1.674.567.696 2.617 0 0-2.532 4.589-3.333 5.778-1.34 1.987-1.53 2.147.077 3.832a32.253 32.253 0 013.685 4.944c.623 1.026.854 2.232-.814 2.232h-3.216c-1.782 0-1.863-.768-3.487-2.68-1.722-2.027-2.513-2.653-2.968-2.895-.902-.472-1.773-.509-1.773 1.397 0 3.122.583 4.178-1.721 4.178-2.52 0-6.844.08-10.64-4.12C.888 11.14.841 1.971 2.362 1.971l4.496.003z" stroke="#2E8EFF" stroke-width="1.5" stroke-linecap="round" stroke-linejoin="round"/></svg><svg fill="none" viewBox="0 0 29 24" id="icon-youtube" xmlns="http://www.w3.org/2000/svg"><path d="M27.494 11.592a46.401 46.401 0 00-.252-4.658c-.126-1.44-.646-2.847-1.172-3.37-.526-.523-.756-1.292-6.263-1.699 0 0-2.124-.232-4.916-.232H13.6c-2.79 0-4.914.232-4.914.232-5.51.404-5.74 1.179-6.262 1.699-.523.52-1.05 1.936-1.175 3.37A46.42 46.42 0 001 11.592v1.291c.005 1.556.088 3.11.249 4.658.125 1.44.645 2.848 1.175 3.367.529.52.752 1.292 6.262 1.702 0 0 2.124.232 4.914.232h1.29c2.793 0 4.917-.232 4.917-.232 5.508-.404 5.74-1.179 6.263-1.701.523-.523 1.046-1.938 1.172-3.368.162-1.547.246-3.102.252-4.658v-1.291z" stroke="#E82555" stroke-width="1.5" stroke-linecap="round" stroke-linejoin="round"/><path d="M10.234 17.541V6.937l9.701 5.3-9.7 5.304z" stroke="#E82555" stroke-width="1.5" stroke-linecap="round" stroke-linejoin="round"/></svg></svg>