<svg width="18" height="31" viewBox="0 0 18 31" fill="none" xmlns="http://www.w3.org/2000/svg">
<path d="M9.22292 11.6423C9.87272 11.6423 10.5079 11.4429 11.0482 11.0695C11.5885 10.6961 12.0096 10.1655 12.2582 9.54454C12.5069 8.92361 12.572 8.24037 12.4452 7.58119C12.3184 6.92201 12.0056 6.31648 11.5461 5.84124C11.0866 5.366 10.5012 5.04242 9.86388 4.9113C9.22657 4.78018 8.56599 4.84748 7.96566 5.10468C7.36533 5.36188 6.85218 5.79739 6.49117 6.35621C6.13016 6.91503 5.9375 7.57205 5.9375 8.24414C5.9375 9.14538 6.28367 10.0098 6.89981 10.647C7.51594 11.2843 8.35157 11.6423 9.22292 11.6423Z" stroke="#F27400" stroke-width="1.5" stroke-linecap="round" stroke-linejoin="round"/>
<path d="M9.22633 15.4699C10.6099 15.4706 11.9626 15.0467 13.1133 14.252C14.264 13.4574 15.1611 12.3278 15.691 11.0058C16.2209 9.68384 16.3598 8.22904 16.0902 6.82539C15.8207 5.42174 15.1547 4.13227 14.1766 3.12013C13.1984 2.10799 11.9521 1.4187 10.5951 1.13929C9.23811 0.859872 7.83146 1.00282 6.55313 1.55033C5.27479 2.09783 4.18215 3.02523 3.4134 4.21509C2.64465 5.40494 2.23438 6.80393 2.23438 8.235C2.23674 10.1525 2.97405 11.9908 4.2847 13.347C5.59535 14.7032 7.37239 15.4667 9.22633 15.4699V15.4699ZM9.22633 4.8275C9.87612 4.8275 10.5113 5.02685 11.0516 5.40024C11.5919 5.77364 12.013 6.30432 12.2616 6.92525C12.5103 7.54618 12.5754 8.22942 12.4486 8.88859C12.3218 9.54777 12.009 10.1533 11.5495 10.6285C11.09 11.1038 10.5046 11.4274 9.86728 11.5585C9.22997 11.6896 8.56939 11.6223 7.96906 11.3651C7.36873 11.1079 6.85558 10.6724 6.49457 10.1136C6.13357 9.55475 5.9409 8.89774 5.9409 8.22565C5.9409 7.3244 6.28707 6.46003 6.90321 5.82275C7.51935 5.18547 8.35498 4.8275 9.22633 4.8275Z" stroke="#F27400" stroke-width="1.5" stroke-linecap="round" stroke-linejoin="round"/>
<path d="M16.9155 16.9804C16.79 16.7653 16.6248 16.578 16.4292 16.429C16.2336 16.2801 16.0115 16.1726 15.7757 16.1126C15.5398 16.0526 15.2949 16.0414 15.0548 16.0795C14.8147 16.1177 14.5843 16.2044 14.3767 16.3348C14.3499 16.3502 11.6618 17.9999 9.09618 17.9999C6.53057 17.9999 3.86043 16.3626 3.81265 16.3348C3.39402 16.0916 2.90033 16.0264 2.43609 16.153C1.97184 16.2796 1.57342 16.5881 1.3251 17.0131C1.07677 17.4381 0.998042 17.9463 1.10554 18.4303C1.21304 18.9142 1.49832 19.3359 1.90108 19.6062C3.38136 20.4891 4.9811 21.1378 6.64707 21.5308L2.2177 26.2296C1.87589 26.5934 1.68779 27.0827 1.6948 27.5899C1.7018 28.0971 1.90332 28.5807 2.25503 28.9342C2.60674 29.2878 3.0798 29.4822 3.57019 29.475C4.06058 29.4677 4.52809 29.2594 4.86989 28.8956L9.09917 24.3977L13.4419 28.911C13.6131 29.0891 13.8165 29.2305 14.0406 29.3273C14.2646 29.4241 14.505 29.4743 14.7478 29.475C14.9906 29.4757 15.2312 29.427 15.4558 29.3315C15.6804 29.2361 15.8846 29.0958 16.0568 28.9187C16.229 28.7416 16.3657 28.5312 16.4593 28.2995C16.5529 28.0677 16.6014 27.8192 16.6021 27.5681C16.6028 27.3169 16.5557 27.068 16.4634 26.8357C16.3711 26.6034 16.2355 26.3922 16.0643 26.2141L11.5662 21.5278C13.2238 21.1333 14.8152 20.4856 16.2883 19.6062C16.4962 19.4764 16.6774 19.3057 16.8214 19.1035C16.9655 18.9012 17.0696 18.6715 17.1278 18.4277C17.1861 18.1838 17.1973 17.9306 17.1608 17.6822C17.1244 17.4339 17.041 17.1954 16.9155 16.9804V16.9804Z" stroke="#F27400" stroke-width="1.5" stroke-linecap="round" stroke-linejoin="round"/>
</svg>
