<svg width="28" height="28" viewBox="0 0 28 28" fill="none" xmlns="http://www.w3.org/2000/svg">
<path d="M14.0828 27.215C21.25 27.215 27.0602 21.4048 27.0602 14.2376C27.0602 7.07039 21.25 1.26022 14.0828 1.26022C6.91564 1.26022 1.10547 7.07039 1.10547 14.2376C1.10547 21.4048 6.91564 27.215 14.0828 27.215Z" stroke="#5FA900" stroke-width="1.5" stroke-linecap="round" stroke-linejoin="round"/>
<path d="M4.875 19.1406L6.65927 8.19287H10.7096C12.2047 8.19287 14.3394 8.64246 14.0824 11.5685C13.8254 14.4945 11.2411 14.6552 11.2411 14.6552L14.0824 19.1406H10.6541L8.43471 15.0524L7.80689 19.1406H4.875Z" stroke="#5FA900" stroke-width="1.5" stroke-linecap="round" stroke-linejoin="round"/>
<path d="M8.68359 13.087L9.16832 10.3858H9.91591C10.6372 10.3858 11.3118 10.9173 11.1687 11.7379C11.1102 12.0932 10.9348 12.4189 10.6703 12.6632C10.4059 12.9076 10.0674 13.0567 9.70859 13.087H8.68359Z" stroke="#5FA900" stroke-width="1.5" stroke-linecap="round" stroke-linejoin="round"/>
<path d="M15.6773 11.7379C15.6773 11.7379 15.1458 14.8479 14.9297 16.2467C14.7136 17.6454 15.6277 19.237 17.3652 19.237H19.0735C20.3526 19.237 22.1835 18.5858 22.5456 16.343C22.9077 14.1003 23.2698 11.7379 23.2698 11.7379H20.6884C20.6884 11.7379 20.1656 15.0699 19.9904 15.908C19.7597 17.0031 19.5349 17.187 18.4427 17.187C17.8879 17.187 17.4615 16.5825 17.5667 15.9401C17.7419 15.0086 18.2412 11.7379 18.2412 11.7379H15.6773Z" stroke="#5FA900" stroke-width="1.5" stroke-linecap="round" stroke-linejoin="round"/>
</svg>
