<svg width="29" height="24" viewBox="0 0 29 24" fill="none" xmlns="http://www.w3.org/2000/svg">
<path d="M27.4935 11.5919C27.4877 10.0359 27.4037 8.4813 27.2417 6.93376C27.1158 5.494 26.596 4.08654 26.0698 3.56358C25.5437 3.04062 25.3145 2.27223 19.8072 1.86549C19.8072 1.86549 17.6831 1.63315 14.8908 1.63315H13.5995C10.8104 1.63315 8.68626 1.86549 8.68626 1.86549C3.1758 2.26901 2.94655 3.04385 2.42359 3.56358C1.90063 4.08331 1.37447 5.50045 1.24857 6.93376C1.0877 8.48135 1.00474 10.036 1 11.5919V12.8831C1.00474 14.4391 1.0877 15.9938 1.24857 17.5414C1.37447 18.9812 1.89417 20.3887 2.42359 20.9085C2.95301 21.4282 3.1758 22.1997 8.68626 22.6097C8.68626 22.6097 10.8104 22.842 13.5995 22.842H14.8908C17.6831 22.842 19.8072 22.6097 19.8072 22.6097C25.3145 22.2062 25.5469 21.4314 26.0698 20.9085C26.5928 20.3855 27.1158 18.9715 27.2417 17.5414C27.4037 15.9939 27.4877 14.4391 27.4935 12.8831V11.5919Z" stroke="#E82555" stroke-width="1.5" stroke-linecap="round" stroke-linejoin="round"/>
<path d="M10.2344 17.5414V6.93689L19.935 12.2375L10.2344 17.5414Z" stroke="#E82555" stroke-width="1.5" stroke-linecap="round" stroke-linejoin="round"/>
</svg>
