<svg width="32" height="22" viewBox="0 0 32 22" fill="none" xmlns="http://www.w3.org/2000/svg">
<path d="M6.85794 1.9754C7.55473 1.9754 6.54978 3.16119 7.81942 7.21778C8.32527 8.83238 9.10246 10.658 10.4994 11.8739C12.362 13.4852 12.6165 12.6311 12.6165 11.1304C12.6165 9.62969 12.6165 5.29161 12.1911 4.15603C11.7656 3.02046 10.9851 2.9702 11.4039 2.05571C11.6752 1.4695 13.779 1.55995 15.598 1.55995C17.4171 1.55995 18.3885 1.35561 18.3885 2.81612V9.83055C18.3885 10.8355 19.0854 11.616 20.7134 9.62953C22.3415 7.64311 23.8925 4.43747 24.2778 3.54643C24.663 2.65539 24.9779 1.53656 26.5256 1.53656H29.5105C30.6428 1.53656 31.1854 2.10269 30.2072 4.15276C30.2072 4.15276 27.6746 8.74197 26.874 9.93114C25.534 11.9176 25.3431 12.0783 26.951 13.7633C28.3344 15.2899 29.5684 16.9455 30.636 18.7075C31.2591 19.7325 31.4903 20.9385 29.822 20.9385H26.606C24.8238 20.9385 24.7434 20.1714 23.1187 18.2587C21.3968 16.232 20.6062 15.6056 20.1506 15.3644C19.2494 14.8921 18.3784 14.8552 18.3784 16.7612C18.3784 19.8832 18.9614 20.9385 16.6566 20.9385C14.1374 20.9385 9.81261 21.0189 6.0171 16.8183C0.888295 11.1404 0.841425 1.97197 2.36231 1.97197L6.85794 1.9754Z" stroke="#2E8EFF" stroke-width="1.5" stroke-linecap="round" stroke-linejoin="round"/>
</svg>
