<svg width="23" height="22" viewBox="0 0 23 22" fill="none" xmlns="http://www.w3.org/2000/svg">
<path d="M21.2553 15.9201V18.9201C21.2564 19.1986 21.1994 19.4743 21.0878 19.7294C20.9762 19.9846 20.8126 20.2137 20.6074 20.402C20.4022 20.5902 20.1599 20.7336 19.8961 20.8228C19.6322 20.912 19.3527 20.9452 19.0753 20.9201C15.9981 20.5857 13.0423 19.5342 10.4453 17.8501C8.02913 16.3148 5.98064 14.2663 4.4453 11.8501C2.75528 9.2413 1.70355 6.27109 1.3753 3.1801C1.35031 2.90356 1.38318 2.62486 1.4718 2.36172C1.56043 2.09859 1.70288 1.85679 1.89007 1.65172C2.07727 1.44665 2.30511 1.28281 2.5591 1.17062C2.81308 1.05843 3.08764 1.00036 3.3653 1.0001H6.3653C6.85061 0.995321 7.3211 1.16718 7.68907 1.48363C8.05704 1.80008 8.29738 2.23954 8.3653 2.7201C8.49193 3.68016 8.72675 4.62282 9.0653 5.5301C9.19985 5.88802 9.22897 6.27701 9.14921 6.65098C9.06946 7.02494 8.88417 7.36821 8.6153 7.6401L7.3453 8.9101C8.76886 11.4136 10.8418 13.4865 13.3453 14.9101L14.6153 13.6401C14.8872 13.3712 15.2305 13.1859 15.6044 13.1062C15.9784 13.0264 16.3674 13.0556 16.7253 13.1901C17.6326 13.5286 18.5752 13.7635 19.5353 13.8901C20.0211 13.9586 20.4647 14.2033 20.7818 14.5776C21.099 14.9519 21.2675 15.4297 21.2553 15.9201Z" stroke-width="2" stroke-linecap="round" stroke-linejoin="round"/>
</svg>
